<svg xmlns="http://www.w3.org/2000/svg" xmlns:xlink="http://www.w3.org/1999/xlink" width="171.548" height="47.894" viewBox="0 0 171.548 47.894"><defs><style>.a{fill:#3c1c94;}.b{fill:url(#a);}.c{fill:url(#b);}.d{fill:url(#c);}</style><linearGradient id="a" x1="0.294" y1="-0.276" x2="1.198" y2="1.49" gradientUnits="objectBoundingBox"><stop offset="0" stop-color="#ff4c89"/><stop offset="0.964" stop-color="blue"/><stop offset="0.995" stop-color="#6b2a37"/></linearGradient><linearGradient id="b" x1="0.281" y1="-0.577" x2="0.95" y2="1.189" xlink:href="#a"/><linearGradient id="c" x1="0.5" y1="1" x2="0.5" gradientUnits="objectBoundingBox"><stop offset="0.858" stop-color="#3c1c94"/><stop offset="1" stop-color="#c012f5"/></linearGradient></defs><g transform="translate(46.227 5.453)"><path class="a" d="M1255.029,1057.8h4.689v30.433h-4.689Z" transform="translate(-1255.029 -1056.566)"/><path class="a" d="M1268.42,1059.188a2.982,2.982,0,1,1,3,3A2.966,2.966,0,0,1,1268.42,1059.188Zm.616,6h4.689v22.661h-4.689Z" transform="translate(-1258.178 -1056.187)"/><path class="a" d="M1296.009,1067.479c5.963,0,10.649,4.606,10.649,11.6s-4.686,11.8-10.649,11.8a10.245,10.245,0,0,1-7.9-3.66v14.065h-4.688v-33.435h4.688v3.331A9.89,9.89,0,0,1,1296.009,1067.479Zm-1.03,4.071c-3.5,0-6.867,2.755-6.867,7.608,0,4.893,3.372,7.649,6.867,7.649,3.537,0,6.91-2.837,6.91-7.731S1298.517,1071.55,1294.979,1071.55Z" transform="translate(-1261.707 -1058.843)"/><path class="a" d="M1332.471,1067.479c5.962,0,10.651,4.606,10.651,11.6s-4.688,11.8-10.651,11.8a10.246,10.246,0,0,1-7.9-3.66v14.065h-4.688v-33.435h4.688v3.331A9.891,9.891,0,0,1,1332.471,1067.479Zm-1.029,4.071c-3.5,0-6.868,2.755-6.868,7.608,0,4.893,3.373,7.649,6.868,7.649,3.537,0,6.908-2.837,6.908-7.731S1334.979,1071.55,1331.442,1071.55Z" transform="translate(-1270.283 -1058.843)"/><path class="b" d="M1354.412,1060.219h19.946v3.825h-7.608V1088.8h-4.688v-24.758h-7.65Z" transform="translate(-1278.403 -1057.135)"/><path class="c" d="M1405.67,1060.219h4.935l-10.733,28.582h-5.429l-10.775-28.582h5.017l8.472,23.77Z" transform="translate(-1285.284 -1057.135)"/></g><path class="d" d="M1218.99,1085.091a12.424,12.424,0,0,1-12.4-8.98l7.861-5.088-7.89-5.109a12.4,12.4,0,0,1,12.427-9.032c4.582,0,8.225,1.934,10.266,6.018h7.563c-2.926-7.507-9.826-11.537-17.83-11.537-.273-.006-.547-.006-.82,0a19.19,19.19,0,0,0-16.983,11.068l-1.22-.789a.573.573,0,0,0,.1-.151,20.337,20.337,0,0,1,3.184-5.044,20.666,20.666,0,0,1,4.54-3.933,21.628,21.628,0,0,1,5.508-2.508,23.263,23.263,0,0,1,6.024-.942,23.414,23.414,0,0,0-6.1.661,22.051,22.051,0,0,0-5.734,2.292,21.223,21.223,0,0,0-6.77,6.143h-6.134v25.725l.094-.061h6.074a21.086,21.086,0,0,0,6.612,6.02,22.033,22.033,0,0,0,5.791,2.339,23.524,23.524,0,0,0,6.168.676,23.41,23.41,0,0,1-6.092-.956,21.63,21.63,0,0,1-5.562-2.554,20.585,20.585,0,0,1-4.562-4.01,20.287,20.287,0,0,1-3.084-4.973l1.215-.786a19.217,19.217,0,0,0,17.752,10.978c8,0,14.905-3.974,17.83-11.483h-7.562C1227.216,1083.16,1223.573,1085.091,1218.99,1085.091Zm-21.547-21.22,11.047,7.152-11.047,7.152Z" transform="translate(-1194.586 -1049.058)"/></svg>